<svg width="505" height="512" viewBox="0 0 505 512" fill="none" xmlns="http://www.w3.org/2000/svg">
<path d="M130.203 395.561L282.55 112.63C284 109.937 282.05 106.672 278.991 106.672H185.787C183.499 106.672 181.405 107.961 180.374 110.004L60.1632 348.284C59.8946 348.817 59.8748 349.441 60.1092 349.989L84.5984 407.276C85.4311 409.224 87.6262 410.198 89.6293 409.51L130.203 395.561Z" fill="#0A5A91"/>
<path d="M281.97 106.672H185.289C183.795 106.672 182.818 108.236 183.473 109.579L329.096 408.106C329.773 409.495 331.183 410.376 332.729 410.376H430.672C432.166 410.376 433.143 408.811 432.489 407.469L287.419 110.077C286.403 107.993 284.288 106.672 281.97 106.672Z" fill="#24BCED"/>
<path d="M244.799 343.692L60.0724 342.904C58.6195 342.898 57.6349 344.381 58.2045 345.717L84.1872 406.689C85.1398 408.924 87.3351 410.375 89.765 410.375H275.241C276.703 410.375 277.682 408.87 277.088 407.533L250.314 347.292C249.345 345.111 247.186 343.702 244.799 343.692Z" fill="#24BCED"/>
</svg>
