<svg width="247" height="249" viewBox="0 0 247 249" fill="none" xmlns="http://www.w3.org/2000/svg">
<ellipse cx="123.5" cy="224.5" rx="123.5" ry="24.5" fill="#D9D6D6"/>
<path d="M125 14.375C104.039 14.3997 83.9435 22.7374 69.1218 37.5592C54.3 52.3809 45.9623 72.4764 45.9376 93.4375C45.9125 110.567 51.5078 127.232 61.8651 140.875C61.8651 140.875 64.0213 143.714 64.3735 144.124L125 215.625L185.655 144.088C185.972 143.707 188.135 140.875 188.135 140.875L188.142 140.853C198.494 127.216 204.087 110.559 204.063 93.4375C204.038 72.4764 195.7 52.3809 180.878 37.5592C166.057 22.7374 145.961 14.3997 125 14.375ZM125 122.188C119.314 122.188 113.755 120.501 109.027 117.342C104.3 114.183 100.615 109.693 98.4386 104.44C96.2625 99.1863 95.6932 93.4056 96.8025 87.8287C97.9118 82.2517 100.65 77.1289 104.671 73.1082C108.692 69.0874 113.814 66.3492 119.391 65.2399C124.968 64.1306 130.749 64.6999 136.002 66.876C141.256 69.052 145.746 72.7369 148.905 77.4649C152.064 82.1928 153.75 87.7513 153.75 93.4375C153.741 101.06 150.709 108.367 145.319 113.756C139.929 119.146 132.622 122.178 125 122.188Z" fill="#FE0898"/>
</svg>
