<svg width="146" height="90" fill="none" xmlns="http://www.w3.org/2000/svg"><path d="M125.291 30.249c0 3.078-.6 6.038-1.706 8.798 10.15 3.244 17.367 11.533 17.367 21.246 0 12.49-11.935 22.626-26.695 22.706V83H26.695C11.935 82.918 0 72.782 0 60.292c0-11.626 10.339-21.21 23.671-22.548 1.546-11.3 12.908-20.072 26.695-20.072 4.704 0 9.126 1.02 12.972 2.816C67.953 10.26 79.608 3 93.256 3c17.693 0 32.035 12.2 32.035 27.249z" fill="#24BCED"/><g opacity=".2" filter="url(#filter0_d)"><path d="M123.586 39.047a23.564 23.564 0 001.706-8.798C125.292 15.199 110.95 3 93.258 3c-13.65 0-25.304 7.26-29.919 17.489-3.846-1.795-8.268-2.817-12.972-2.817C35.41 36.651 39.399 70.654 53.67 83h60.587c14.76-.081 26.696-10.217 26.696-22.707 0-9.713-7.218-18.002-17.368-21.246z" fill="#0A5A91"/></g><path d="M56.027 63.883c0-1.336.087-2.497.261-3.484.194-1.007.494-1.888.9-2.643a7.038 7.038 0 011.656-1.975c.677-.561 1.51-1.084 2.497-1.568.639-.31 1.268-.6 1.888-.871.62-.29 1.18-.62 1.684-.987.503-.368.91-.784 1.22-1.249.31-.484.464-1.065.464-1.742 0-.872-.27-1.559-.813-2.062-.523-.523-1.268-.784-2.236-.784a5.3 5.3 0 00-1.568.232 6.673 6.673 0 00-1.365.61 7.18 7.18 0 00-1.162.784c-.348.29-.648.571-.9.842l-2.439-2.555c.252-.31.62-.659 1.104-1.046a9.739 9.739 0 011.713-1.132 11.79 11.79 0 012.294-.872c.852-.251 1.79-.377 2.817-.377 1.123 0 2.11.155 2.962.465.871.31 1.597.745 2.178 1.306.6.542 1.045 1.2 1.336 1.975.31.774.464 1.626.464 2.556 0 .89-.135 1.664-.406 2.323a5.908 5.908 0 01-1.104 1.713 7.228 7.228 0 01-1.597 1.336c-.6.368-1.249.716-1.946 1.045-.735.368-1.403.726-2.003 1.075a9.351 9.351 0 00-1.51 1.045 4.776 4.776 0 00-.959 1.162c-.213.406-.32.861-.32 1.365h9.874v3.513H56.027zm25.121 0v-4.675h-8.683v-3.485l9.902-12.458h2.672v12.43h2.555v3.513H85.04v4.675h-3.891zm-4.763-8.189h5.198v-6.563l-5.198 6.563z" fill="#fff"/><path d="M100.93 47.712v4.547h4.622" stroke="#fff" stroke-width=".623"/><circle cx="100.857" cy="51.719" r="7.835" stroke="#fff" stroke-width=".934"/><defs><filter id="filter0_d" x="35.89" y="0" width="110.064" height="90" filterUnits="userSpaceOnUse" color-interpolation-filters="sRGB"><feFlood flood-opacity="0" result="BackgroundImageFix"/><feColorMatrix in="SourceAlpha" values="0 0 0 0 0 0 0 0 0 0 0 0 0 0 0 0 0 0 127 0"/><feOffset dy="2"/><feGaussianBlur stdDeviation="2.5"/><feColorMatrix values="0 0 0 0 0 0 0 0 0 0 0 0 0 0 0 0 0 0 0.16 0"/><feBlend in2="BackgroundImageFix" result="effect1_dropShadow"/><feBlend in="SourceGraphic" in2="effect1_dropShadow" result="shape"/></filter></defs></svg>