<svg width="40" height="51" fill="none" xmlns="http://www.w3.org/2000/svg"><rect x="1" y="1" width="38" height="49" rx="2" stroke="#24BCED" stroke-width="2"/><rect x="7.472" y="8.028" width="25.056" height=".944" rx=".472" fill="#24BCED" stroke="#24BCED" stroke-width=".944"/><rect x="7.472" y="13.695" width="25.056" height=".944" rx=".472" fill="#24BCED" stroke="#24BCED" stroke-width=".944"/><rect x="7.472" y="21.25" width="7.056" height=".944" rx=".472" fill="#24BCED" stroke="#24BCED" stroke-width=".944"/><rect x="7.472" y="26.917" width="7.056" height=".944" rx=".472" fill="#24BCED" stroke="#24BCED" stroke-width=".944"/><rect x="7.472" y="32.584" width="7.056" height=".944" rx=".472" fill="#24BCED" stroke="#24BCED" stroke-width=".944"/><rect x="7.472" y="38.25" width="7.056" height=".944" rx=".472" fill="#24BCED" stroke="#24BCED" stroke-width=".944"/><path fill-rule="evenodd" clip-rule="evenodd" d="M30.996 27.573C30.892 29.938 28.798 32 26 32c-2.798 0-4.892-2.062-4.996-4.427a5 5 0 019.992 0zM31 32.016C29.73 33.24 27.959 34 26 34s-3.73-.76-5-1.985v8.462l4.25-1.72.75-.304.75.304 4.25 1.72v-8.462zm-5-11.238c3.866 0 7 2.96 7 6.611 0 .064 0 .127-.003.19.002.066.003.133.003.2v14.1c0 .749-.757 1.26-1.45.979L26 40.61l-5.55 2.246c-.693.28-1.45-.23-1.45-.978V27.777a7 7 0 01.003-.2 6.237 6.237 0 01-.003-.189c0-3.65 3.134-6.61 7-6.61z" fill="#24BCED"/></svg>