<svg width="222" height="154" fill="none" xmlns="http://www.w3.org/2000/svg"><path d="M210.054 81.259v-7.305l8.83-8.022a9.657 9.657 0 003.016-5.756 9.854 9.854 0 00-1.269-6.42l-10.853-19.098a9.39 9.39 0 00-3.363-3.492 8.942 8.942 0 00-4.594-1.282 8.886 8.886 0 00-2.943.477l-11.176 3.915a51.733 51.733 0 00-6.025-3.58l-2.345-12.033a9.618 9.618 0 00-3.255-5.578 8.982 8.982 0 00-5.944-2.109H148.61a8.986 8.986 0 00-5.945 2.11 9.622 9.622 0 00-3.254 5.577l-2.345 12.032a52.256 52.256 0 00-6.071 3.581l-10.946-4.106a8.873 8.873 0 00-2.943-.286 8.94 8.94 0 00-4.594 1.282 9.383 9.383 0 00-3.363 3.492L98.295 53.757a9.858 9.858 0 00-1.128 6.343 9.65 9.65 0 003.014 5.641l8.692 8.26v7.305l-8.692 8.022a9.647 9.647 0 00-3.09 5.729 9.855 9.855 0 001.204 6.446l10.854 19.098a9.377 9.377 0 003.363 3.493 8.943 8.943 0 004.594 1.282 8.893 8.893 0 002.943-.477l11.176-3.916a51.469 51.469 0 006.025 3.581l2.345 12.032a9.624 9.624 0 003.254 5.579 8.986 8.986 0 005.944 2.108h21.708a8.983 8.983 0 005.944-2.108 9.613 9.613 0 003.254-5.579l2.346-12.032a52.212 52.212 0 006.071-3.581l11.13 3.916a8.884 8.884 0 002.943.477 8.945 8.945 0 004.594-1.282 9.385 9.385 0 003.363-3.493l10.485-19.098a9.856 9.856 0 001.129-6.343 9.653 9.653 0 00-3.014-5.641l-8.692-8.26zm-8.233 34.568l-15.775-5.539a40.416 40.416 0 01-12.463 7.496l-3.266 17.141H148.61l-3.266-16.95a42.699 42.699 0 01-12.417-7.496l-15.821 5.348-10.854-19.099 12.509-11.459a44.11 44.11 0 010-14.944L106.252 58.53l10.854-19.098 15.775 5.539a40.409 40.409 0 0112.463-7.497l3.266-17.14h21.707l3.266 16.95A42.697 42.697 0 01186 44.78l15.821-5.348 10.854 19.099-12.51 11.459a44.06 44.06 0 010 14.944l12.51 11.793-10.854 19.099z" fill="#C6E5FF"/><path d="M159.463 106.278c-5.458 0-10.793-1.68-15.331-4.828-4.538-3.148-8.075-7.622-10.164-12.857a29.667 29.667 0 01-1.57-16.552c1.065-5.557 3.693-10.661 7.552-14.668 3.859-4.006 8.776-6.735 14.129-7.84a26.656 26.656 0 0115.944 1.63c5.042 2.168 9.351 5.84 12.384 10.551 3.032 4.711 4.65 10.25 4.65 15.916a29.323 29.323 0 01-2.025 11.008 28.466 28.466 0 01-5.975 9.334 27.267 27.267 0 01-8.991 6.203 26.448 26.448 0 01-10.603 2.103zm0-47.746a17.4 17.4 0 00-7.107 1.334 17.953 17.953 0 00-6.028 4.129 18.761 18.761 0 00-3.977 6.257 19.304 19.304 0 00-1.285 7.378 19.303 19.303 0 001.285 7.378 18.761 18.761 0 003.977 6.258 17.951 17.951 0 006.028 4.128 17.4 17.4 0 007.107 1.334 17.398 17.398 0 007.106-1.334 17.941 17.941 0 006.028-4.128 18.73 18.73 0 003.977-6.258 19.303 19.303 0 001.285-7.378 19.304 19.304 0 00-1.285-7.378 18.73 18.73 0 00-3.977-6.257 17.943 17.943 0 00-6.028-4.13 17.398 17.398 0 00-7.106-1.333zM66.028 41.04v-4.266l5.156-4.684a5.64 5.64 0 001.761-3.36 5.752 5.752 0 00-.74-3.749L65.867 13.83a5.478 5.478 0 00-1.964-2.04 5.22 5.22 0 00-2.682-.748 5.19 5.19 0 00-1.718.28l-6.526 2.285a30.216 30.216 0 00-3.518-2.09l-1.37-7.026a5.615 5.615 0 00-1.9-3.258A5.246 5.246 0 0042.72.001H30.15a5.246 5.246 0 00-3.47 1.231 5.615 5.615 0 00-1.9 3.258l-1.37 7.025a30.554 30.554 0 00-3.545 2.091l-6.391-2.397a5.182 5.182 0 00-1.72-.168 5.22 5.22 0 00-2.682.749 5.478 5.478 0 00-1.963 2.04L.77 24.98a5.756 5.756 0 00-.659 3.704 5.635 5.635 0 001.76 3.294l5.076 4.823v4.266L1.872 45.75a5.633 5.633 0 00-1.804 3.346 5.754 5.754 0 00.703 3.764L7.11 64.012a5.478 5.478 0 001.963 2.04 5.22 5.22 0 002.683.748 5.194 5.194 0 001.718-.278L20 64.235a30.22 30.22 0 003.518 2.091l1.37 7.026a5.615 5.615 0 001.9 3.257 5.247 5.247 0 003.47 1.232h12.676a5.246 5.246 0 003.47-1.232 5.614 5.614 0 001.901-3.257l1.37-7.026a30.546 30.546 0 003.544-2.09l6.5 2.286a5.18 5.18 0 001.718.278 5.22 5.22 0 002.682-.748 5.478 5.478 0 001.964-2.04l6.123-11.151a5.756 5.756 0 00.659-3.704 5.635 5.635 0 00-1.76-3.294l-5.076-4.823zm-4.807 20.184L52.01 57.99a23.601 23.601 0 01-7.278 4.377l-1.906 10.01H30.15l-1.906-9.898a24.934 24.934 0 01-7.251-4.377l-9.238 3.123-6.338-11.152 7.305-6.691a25.748 25.748 0 010-8.727L5.417 27.77l6.338-11.152 9.21 3.234a23.601 23.601 0 017.279-4.377l1.906-10.01h12.676l1.906 9.898a24.936 24.936 0 017.251 4.377l9.238-3.123L67.56 27.77l-7.305 6.691a25.72 25.72 0 010 8.726l7.305 6.887-6.338 11.151z" fill="#C6E5FF"/><path d="M36.487 55.649c-3.186 0-6.302-.981-8.951-2.82-2.65-1.837-4.715-4.45-5.935-7.506a17.322 17.322 0 01-.917-9.665 16.934 16.934 0 014.41-8.565c2.253-2.34 5.124-3.933 8.25-4.578a15.563 15.563 0 019.31.952c2.944 1.266 5.46 3.41 7.23 6.16a17.185 17.185 0 012.716 9.294 17.115 17.115 0 01-1.182 6.428 16.62 16.62 0 01-3.49 5.45 15.922 15.922 0 01-5.25 3.622 15.441 15.441 0 01-6.19 1.228zm0-27.88a10.16 10.16 0 00-4.15.78 10.477 10.477 0 00-3.519 2.41 10.942 10.942 0 00-2.322 3.654 11.269 11.269 0 00-.75 4.308c-.034 1.474.222 2.94.75 4.308a10.943 10.943 0 002.322 3.654 10.478 10.478 0 003.52 2.411 10.17 10.17 0 004.15.779c1.42.034 2.83-.23 4.149-.779a10.478 10.478 0 003.52-2.41 10.945 10.945 0 002.322-3.655 11.27 11.27 0 00.75-4.308 11.27 11.27 0 00-.75-4.308 10.944 10.944 0 00-2.322-3.654 10.477 10.477 0 00-3.52-2.41 10.159 10.159 0 00-4.15-.78zM71.3 129.305v-2.862l3.46-3.143a3.787 3.787 0 001.18-2.255 3.863 3.863 0 00-.496-2.516l-4.253-7.483a3.674 3.674 0 00-1.317-1.368 3.49 3.49 0 00-1.8-.502 3.46 3.46 0 00-1.154.187l-4.379 1.534a20.106 20.106 0 00-2.36-1.403l-.92-4.715a3.765 3.765 0 00-1.274-2.185 3.518 3.518 0 00-2.33-.827h-8.433a3.518 3.518 0 00-2.329.827 3.765 3.765 0 00-1.275 2.185l-.919 4.715c-.822.412-1.616.881-2.378 1.403l-4.29-1.609a3.453 3.453 0 00-1.152-.112 3.49 3.49 0 00-1.8.502c-.548.328-1.002.8-1.318 1.368l-4.253 7.483a3.865 3.865 0 00-.442 2.486 3.779 3.779 0 001.181 2.21l3.406 3.237v2.862l-3.406 3.143a3.778 3.778 0 00-1.21 2.245 3.86 3.86 0 00.471 2.525l4.253 7.483c.316.569.77 1.041 1.318 1.369a3.51 3.51 0 001.8.502c.391.003.78-.06 1.153-.187l4.379-1.534c.756.522 1.544.99 2.36 1.403l.92 4.714a3.767 3.767 0 001.275 2.186 3.517 3.517 0 002.328.826h8.506a3.517 3.517 0 002.329-.826 3.768 3.768 0 001.275-2.186l.919-4.714a20.49 20.49 0 002.379-1.403l4.36 1.534c.373.127.762.19 1.154.187a3.509 3.509 0 001.8-.502 3.669 3.669 0 001.317-1.369l4.109-7.483c.42-.75.577-1.629.442-2.485a3.78 3.78 0 00-1.18-2.21l-3.407-3.237zm-3.226 13.545l-6.181-2.171a15.842 15.842 0 01-4.884 2.938l-1.28 6.716h-8.505l-1.279-6.642a16.729 16.729 0 01-4.865-2.937l-6.2 2.096-4.252-7.484 4.901-4.489a17.278 17.278 0 010-5.856l-4.901-4.621 4.253-7.483 6.18 2.17a15.839 15.839 0 014.884-2.937l1.28-6.716h8.505l1.28 6.641a16.749 16.749 0 014.865 2.937l6.199-2.095 4.252 7.483-4.901 4.49a17.278 17.278 0 010 5.856l4.901 4.62-4.252 7.484z" fill="#C6E5FF"/><path d="M51.476 139.108c-2.138 0-4.228-.659-6.007-1.892a11.145 11.145 0 01-3.982-5.038 11.623 11.623 0 01-.615-6.485 11.364 11.364 0 012.96-5.747 10.693 10.693 0 015.535-3.072 10.441 10.441 0 016.247.639 10.906 10.906 0 014.852 4.134 11.531 11.531 0 011.822 6.236 11.484 11.484 0 01-.793 4.313 11.143 11.143 0 01-2.341 3.657 10.678 10.678 0 01-3.523 2.431c-1.318.559-2.73.839-4.155.824zm0-18.708a6.832 6.832 0 00-2.784.522 7.04 7.04 0 00-2.362 1.618 7.352 7.352 0 00-1.558 2.452 7.566 7.566 0 00-.504 2.891c-.022.989.15 1.972.504 2.891a7.352 7.352 0 001.558 2.452 7.037 7.037 0 002.362 1.617 6.816 6.816 0 002.784.523 6.82 6.82 0 002.785-.523 7.037 7.037 0 002.362-1.617 7.352 7.352 0 001.558-2.452 7.568 7.568 0 00.504-2.891 7.568 7.568 0 00-.504-2.891 7.352 7.352 0 00-1.558-2.452 7.04 7.04 0 00-2.362-1.618 6.832 6.832 0 00-2.785-.522z" fill="#C6E5FF"/></svg>