<svg width="80" height="80" fill="none" xmlns="http://www.w3.org/2000/svg"><g clip-path="url(#clip0)"><path d="M55.514 58.09l-8.288-9.06V38.01H32.773v11.024l-8.197 9.056h30.938z" fill="#FFDDCE"/><path d="M54.006 57.927l-7.43-2.182L40 63.284 28.634 50.248 16.55 53.795a11.075 11.075 0 00-7.956 10.627v11.66A3.92 3.92 0 0012.514 80h5.316l.958-.683h.498l.958.683h39.508l1.407-1.003h1.166v-9.958a11.58 11.58 0 00-8.319-11.112z" fill="#407093"/><path d="M63.453 53.795L51.37 50.248l-5.617 6.44 7.506 2.204a11.075 11.075 0 017.955 10.627v9.479h.953V80h5.32a3.92 3.92 0 003.92-3.92V64.423c0-4.915-3.24-9.242-7.955-10.627zM20.245 79.999v-6.411a1.207 1.207 0 10-2.414 0v6.41h2.414z" fill="#365E7D"/><path d="M62.167 79.999v-6.411a1.207 1.207 0 00-2.414 0v6.41h2.414z" fill="#365E7D"/><path d="M18.224 23.625l-1.237-1.365H14.34l-1.237 1.364-1.631 9.574a1.48 1.48 0 001.458 1.728h5.465a1.48 1.48 0 001.46-1.728l-1.632-9.573z" fill="#E4F6FF"/><path d="M16.872 21.293V9.188a1.207 1.207 0 00-2.415 0v12.105h2.415z" fill="#407093"/><path d="M46.69 8.22H33.31a8.76 8.76 0 00-8.76 8.76v8.449l1.449 1.277H55.45V16.98a8.76 8.76 0 00-8.76-8.76z" fill="#EFC984"/><path d="M46.69 8.22h-1.4v18.486h8.822l1.338-1.277V16.98a8.76 8.76 0 00-8.76-8.76z" fill="#EABC6B"/><path d="M40.001 44.388c.146 0 .29-.003.435-.008a12.966 12.966 0 006.013-10.326v-15.3h-16.62v4.027a2.648 2.648 0 01-2.648 2.648h-2.63v4.331c0 1.107.897 2.004 2.004 2.004a.66.66 0 01.655.622c.422 6.699 5.986 12.002 12.791 12.002z" fill="#FFDDCE"/><path d="M52.823 25.43a2.648 2.648 0 01-2.648-2.649v-4.026H45.29V33.66a12.82 12.82 0 01-6.697 10.648c.463.05.932.079 1.408.079 6.806 0 12.37-5.303 12.792-12.002a.659.659 0 01.655-.622 2.004 2.004 0 002.004-2.004v-4.33h-2.63z" fill="#FFCBBE"/><path d="M46.45 13.613v-2.984a2.68 2.68 0 01-2.66-2.68V2.588L42.662.78 40.413.064a1.367 1.367 0 00-.828 0L15.101 7.852c-1.366.434-1.229 2.41.184 2.65L40 14.713l6.45-1.1z" fill="#407093"/><path d="M46.449 10.672l-3.56-.44a23.53 23.53 0 00-5.78 0l-13.55 1.677v6.039c0 .654.53 1.184 1.184 1.184h21.706v-8.46z" fill="#4A80AA"/><path d="M64.896 7.853L42.662.781v7.086a2.648 2.648 0 002.627 2.647v3.298l19.422-3.308c1.413-.24 1.551-2.216.185-2.65z" fill="#365E7D"/><path d="M45.29 10.531v8.604h9.97c.654 0 1.184-.53 1.184-1.185v-6.039l-11.154-1.38z" fill="#407093"/><path d="M18.225 23.621h-5.12V20.26c0-.714.578-1.293 1.293-1.293h2.534c.714 0 1.293.579 1.293 1.293v3.361z" fill="#FFE07D"/><path d="M47.226 44.995c0 4.689-1.36 9.277-3.918 13.207l-3.306 5.081 18.444-10.96-11.22-7.328zm-14.448 0c0 4.689 1.36 9.277 3.918 13.207L40 63.283l-18.443-10.96 11.22-7.328z" fill="#4A80AA"/><path d="M46.157 52.096a28.805 28.805 0 01-6.157.649c-2.18 0-4.26-.232-6.156-.65a24.213 24.213 0 002.85 6.107L40 63.283l3.306-5.08a24.214 24.214 0 002.85-6.107z" fill="#F4FBFF"/></g><defs><clipPath id="clip0"><path fill="#fff" d="M0 0h80v80H0z"/></clipPath></defs></svg>