<svg width="36" height="32" viewBox="0 0 36 32" fill="none" xmlns="http://www.w3.org/2000/svg">
<path d="M35.4961 9C35.4961 8.0375 34.7086 7.25 33.7461 7.25H31.9961V3.75C31.9961 1.825 30.4211 0.25 28.4961 0.25H3.99609C2.07109 0.25 0.496094 1.825 0.496094 3.75V28.25C0.496094 30.175 2.07109 31.75 3.99609 31.75H28.4961C30.4211 31.75 31.9961 30.175 31.9961 28.25V24.75H33.7461C34.7086 24.75 35.4961 23.9625 35.4961 23C35.4961 22.0375 34.7086 21.25 33.7461 21.25H31.9961V17.75H33.7461C34.7086 17.75 35.4961 16.9625 35.4961 16C35.4961 15.0375 34.7086 14.25 33.7461 14.25H31.9961V10.75H33.7461C34.7086 10.75 35.4961 9.9625 35.4961 9ZM26.7461 28.25H5.74609C4.78359 28.25 3.99609 27.4625 3.99609 26.5V5.5C3.99609 4.5375 4.78359 3.75 5.74609 3.75H26.7461C27.7086 3.75 28.4961 4.5375 28.4961 5.5V26.5C28.4961 27.4625 27.7086 28.25 26.7461 28.25ZM8.37109 17.75H15.3711C15.8611 17.75 16.2461 18.135 16.2461 18.625V23.875C16.2461 24.365 15.8611 24.75 15.3711 24.75H8.37109C7.88109 24.75 7.49609 24.365 7.49609 23.875V18.625C7.49609 18.135 7.88109 17.75 8.37109 17.75ZM18.8711 7.25H24.1211C24.6111 7.25 24.9961 7.635 24.9961 8.125V11.625C24.9961 12.115 24.6111 12.5 24.1211 12.5H18.8711C18.3811 12.5 17.9961 12.115 17.9961 11.625V8.125C17.9961 7.635 18.3811 7.25 18.8711 7.25ZM8.37109 7.25H15.3711C15.8611 7.25 16.2461 7.635 16.2461 8.125V15.125C16.2461 15.615 15.8611 16 15.3711 16H8.37109C7.88109 16 7.49609 15.615 7.49609 15.125V8.125C7.49609 7.635 7.88109 7.25 8.37109 7.25ZM18.8711 14.25H24.1211C24.6111 14.25 24.9961 14.635 24.9961 15.125V23.875C24.9961 24.365 24.6111 24.75 24.1211 24.75H18.8711C18.3811 24.75 17.9961 24.365 17.9961 23.875V15.125C17.9961 14.635 18.3811 14.25 18.8711 14.25Z" fill="#24BCED"/>
</svg>
