<svg width="54" height="54" fill="none" xmlns="http://www.w3.org/2000/svg"><g clip-path="url(#clip0)" fill="#24BCED"><path d="M53.41 38.872l-5.027-1.83a.892.892 0 00-1.142.535l-.305.837-5.823-2.123a.86.86 0 00-.459-.04l-12.116 2.14a3.574 3.574 0 00-2.552 1.884l-5.557-2.027a3.532 3.532 0 00-2.726.12 3.574 3.574 0 00-2.023 2.711 3.644 3.644 0 002.433 3.915l18.307 6.663a.87.87 0 00.59.008l5.114-1.726.544.197-.306.838a.892.892 0 00.535 1.143l5.028 1.829a.89.89 0 001.142-.532l4.879-13.406a.892.892 0 00-.536-1.136zm-11.561 9.28l-5.113 1.726-18.014-6.558a1.884 1.884 0 01-1.28-1.968 1.785 1.785 0 012.377-1.426l5.784 2.105c.003.164.016.328.04.49a3.581 3.581 0 004.129 2.894l10.037-1.77-.31-1.756-10.033 1.77a1.796 1.796 0 01-2.065-1.44 1.65 1.65 0 01.004-.616.9.9 0 00.015-.089.983.983 0 01.062-.222 1.791 1.791 0 011.367-1.147l11.878-2.095 5.6 2.037-3.05 8.38-.838-.304a.894.894 0 00-.59-.011zm5.843 3.816l-3.35-1.22 4.267-11.728 3.352 1.22-4.269 11.728zM20.94 14.381a6.986 6.986 0 001.549 2.837 1.703 1.703 0 00-.027.215v4.856a2.674 2.674 0 002.674 2.674v8.916a.89.89 0 00.493.802l1.783.892a.892.892 0 00.797 0l1.783-.892a.891.891 0 00.493-.802v-8.916a2.675 2.675 0 002.675-2.674v-4.856a1.812 1.812 0 00-.03-.232 6.907 6.907 0 001.367-2.249 3.257 3.257 0 003.326-1.525 3.52 3.52 0 00-.56-4.346l-7.256-7.253A6.201 6.201 0 0025.595 0H16.22a.879.879 0 00-.352.072L9.801 2.675h-.713V.892A.89.89 0 008.197 0H1.064C.572 0 .173.4.173.892v14.264c0 .493.399.892.891.892h7.133c.492 0 .891-.4.891-.892v-1.783h.13c.639 2.14 3.506 3.566 6.111 3.566a7.113 7.113 0 005.61-2.558zm-13.635-.116h-5.35V1.783h5.35v12.482zm21.397 19.063l-.891.445-.892-.445v-8.365h1.783v8.365zm2.675-11.04c0 .493-.4.892-.892.892h-5.349a.892.892 0 01-.891-.891v-3.64c.599.35 1.247.608 1.922.767a1.794 1.794 0 10.25-1.792 5.286 5.286 0 01-1.426-.609 7 7 0 012.82-.967c1.28.18 2.5.654 3.566 1.386v4.855zm.664-6.532a9.731 9.731 0 00-4.23-1.491c-1.505.16-2.95.67-4.224 1.488a5.223 5.223 0 01-1.046-2.38h4.378a3.476 3.476 0 003.115-1.864l2.497 2.496c.1.093.205.18.315.26a5.115 5.115 0 01-.805 1.491zm-1.598-6.36a3.533 3.533 0 00-.883-1.962 5.35 5.35 0 013.58 4.661l-2.697-2.699zm-10.656 3.086c0 1.35-2.209 2.674-4.458 2.674-2.25 0-4.458-1.324-4.458-2.674a.891.891 0 00-.891-.892h-.892V4.458h.892a.88.88 0 00.351-.073L16.4 1.783h9.192a4.43 4.43 0 013.156 1.305L36 10.342c.586.548.718 1.427.318 2.123a1.605 1.605 0 01-1.376.748H34.9c.027-.243.04-.487.042-.731a7.14 7.14 0 00-7.132-7.133 7.058 7.058 0 00-3.423.892h-7.276v1.783h9.807a1.783 1.783 0 010 3.566h-6.24c-.493 0-.892.4-.892.892z"/></g><defs><clipPath id="clip0"><path fill="#fff" d="M0 0h54v54H0z"/></clipPath></defs></svg>