<svg width="251" height="241" fill="none" xmlns="http://www.w3.org/2000/svg"><g opacity=".15" fill="#fff"><path d="M229.704 44.905L67.023 5.279c-11.215-2.731-22.454 3.668-25.06 14.27L13.622 134.88c-2.606 10.601 4.396 21.444 15.611 24.175l30.503 7.43-8.898 36.205 72.72-20.66 68.357 16.651c11.215 2.731 22.454-3.668 25.059-14.269L245.316 69.08c2.605-10.601-4.397-21.444-15.612-24.175zm-33.066 134.554l-73.99-18.022-43.128 12.242 5.274-21.462-50.838-12.383L62.299 24.501 224.98 64.127l-28.343 115.332z"/><path d="M85.73 60.748l101.677 24.766-4.724 19.222L81.007 79.97l4.724-19.222zm-9.447 38.444l71.173 17.336-4.724 19.222-71.173-17.336 4.724-19.222z"/></g></svg>