<svg width="60" height="60" fill="none" xmlns="http://www.w3.org/2000/svg"><g clip-path="url(#clip0)"><path d="M29.634 30.366l-5-5a1.25 1.25 0 00-1.768 0l-5 5a1.25 1.25 0 000 1.767l5 5a1.25 1.25 0 001.768 0l5-5a1.25 1.25 0 000-1.767zm24.999-25l-5-5a1.25 1.25 0 00-1.768 0l-5 5a1.25 1.25 0 000 1.767l5 5a1.25 1.25 0 001.768 0l5-5a1.25 1.25 0 000-1.767z" fill="#455A64"/><path d="M52.134 12.866l-10-10a1.25 1.25 0 00-1.767 0l-20 20a1.25 1.25 0 000 1.767l10 10a1.25 1.25 0 001.768 0l6.83-6.83a1.25 1.25 0 000-1.768 5 5 0 117.07-7.07 1.25 1.25 0 001.767 0l4.33-4.33a1.25 1.25 0 00.005-1.767l-.003-.002z" fill="#90A4AE"/><path d="M51.248 50h-.662a23.602 23.602 0 00-.905-28.667 1.25 1.25 0 00-2.218.87l.035.297a5 5 0 01-3.737 4.815 1.25 1.25 0 00-.75 1.855c3.928 6.478 1.86 14.914-4.617 18.842A13.719 13.719 0 0131.249 50a16.403 16.403 0 01-9.315-2.5h6.815c.69 0 1.25-.56 1.25-1.25v-5c0-.69-.56-1.25-1.25-1.25h-22.5c-.69 0-1.25.56-1.25 1.25v5c0 .69.56 1.25 1.25 1.25h3.1a19.429 19.429 0 005.65 7.218v4.032c0 .69.56 1.25 1.25 1.25h35c.69 0 1.25-.56 1.25-1.25v-7.5c0-.69-.56-1.25-1.25-1.25z" fill="#455A64"/><path d="M42.498 30a7.5 7.5 0 100-14.999 7.5 7.5 0 000 15z" fill="#607D8B"/></g><defs><clipPath id="clip0"><path fill="#fff" d="M0 0h60v60H0z"/></clipPath></defs></svg>