<svg width="176" height="175" fill="none" xmlns="http://www.w3.org/2000/svg"><path opacity=".15" d="M58.66 124.371l-15.156-15.075a14.84 14.84 0 00-7.434-3.951 14.885 14.885 0 00-8.398.721l-18.47 7.335a14.735 14.735 0 00-6.65 5.345A14.616 14.616 0 000 126.861v33.651c.016 1.97.432 3.917 1.224 5.723a14.607 14.607 0 003.385 4.786 14.682 14.682 0 005.001 3.08c1.86.681 3.838.98 5.816.88C144.855 166.972 170.97 57.946 175.91 16.22c.229-2.05.02-4.123-.615-6.086a14.577 14.577 0 00-3.066-5.302 14.68 14.68 0 00-4.98-3.588A14.75 14.75 0 00161.228 0H128.55a14.67 14.67 0 00-8.175 2.516 14.554 14.554 0 00-5.357 6.637l-7.375 18.373a14.464 14.464 0 00-.795 8.35 14.516 14.516 0 003.975 7.398l15.156 15.076s-8.728 58.753-67.32 66.021z" fill="#fff"/></svg>