<svg width="80" height="80" fill="none" xmlns="http://www.w3.org/2000/svg"><g clip-path="url(#clip0)"><path d="M58.477 43.11a2.492 2.492 0 00-2.686.414L41.927 55.867a2.496 2.496 0 00-.813 2.223l2.233 15.59c.134.937.844 1.66 1.74 1.96l.74.117c.69 0 1.387-.287 1.877-.78 7.897-7.9 12.247-18.403 12.247-29.583a2.49 2.49 0 00-1.474-2.284zM34.61 20.048c-11.18 0-21.687 4.35-29.583 12.247l-.117.113a2.497 2.497 0 001.413 4.24l15.59 2.233.354.027c.706 0 1.39-.3 1.866-.837l12.344-13.863a2.497 2.497 0 00-1.867-4.16z" fill="#2196F3"/><path d="M39.593 63.835c-.64 0-1.28-.246-1.767-.733l-20.93-20.93a2.501 2.501 0 01-.096-3.433l15.686-17.57C43.596 8.165 61.633-.328 77.55.012a2.499 2.499 0 012.44 2.44c.366 15.827-8.15 33.95-21.197 45.096l-17.53 15.65a2.5 2.5 0 01-1.67.637z" fill="#ECEFF1"/><path d="M57.11 31.218a8.308 8.308 0 01-5.894-2.436c-3.246-3.25-3.246-8.537 0-11.787 3.25-3.25 8.537-3.25 11.787 0 3.247 3.25 3.247 8.537 0 11.787a8.305 8.305 0 01-5.893 2.436z" fill="#2196F3"/><path d="M2.5 80a2.502 2.502 0 01-2.393-3.22c.837-2.803 5.2-16.963 8.607-20.366 3.977-3.974 10.903-3.974 14.873 0a10.453 10.453 0 013.08 7.44c0 2.81-1.093 5.45-3.08 7.436-3.403 3.404-17.566 7.767-20.366 8.607L2.5 80z" fill="#FF9800"/><path d="M33.456 20.061c-10.746.29-20.803 4.607-28.433 12.234l-.113.113c-.67.67-.903 1.66-.603 2.557.3.9 1.08 1.55 2.016 1.683l10.944 1.57 15.22-17.05c.316-.37.64-.74.97-1.107z" fill="#1D83D4"/><path d="M76.62 0C61.393 0 44.406 7.93 33.456 20.06c-.33.367-.653.733-.973 1.107l-15.217 17.05-.466.523a2.5 2.5 0 00.096 3.433L27.363 52.64l23.853-23.853c-3.246-3.25-3.246-8.537 0-11.787a8.313 8.313 0 015.894-2.437c2.133 0 4.27.814 5.893 2.437L79.26.743A2.501 2.501 0 0077.55.01c-.31-.007-.62-.01-.93-.01z" fill="#CDD0D2"/><path d="M57.11 14.562c-2.134 0-4.27.813-5.894 2.436-3.246 3.25-3.246 8.537 0 11.787L63 16.998a8.292 8.292 0 00-5.89-2.437z" fill="#1D83D4"/><path d="M16.151 53.434c-2.726 0-5.45.993-7.44 2.98C5.308 59.817.945 73.98.105 76.78a2.504 2.504 0 00.626 2.487l22.854-22.853c-1.984-1.987-4.707-2.98-7.434-2.98z" fill="#DE8400"/></g><defs><clipPath id="clip0"><path fill="#fff" d="M0 0h80v80H0z"/></clipPath></defs></svg>