<svg width="50" height="50" fill="none" xmlns="http://www.w3.org/2000/svg"><path d="M15.886 19.492a.831.831 0 00-.686-.452l-7.01-.468a.818.818 0 00-.832.527L2.304 32.016a.832.832 0 001.276.97l4.195-3.145 2.442.488c.398.08.796-.14.942-.52 1.311-3.436 2.89-6.63 4.69-9.494a.834.834 0 00.037-.822zm-6.03 9.064l-2.12-.424a.84.84 0 00-.664.151l-2.149 1.612 3.764-9.62 5.031.335a56.28 56.28 0 00-3.861 7.946zm21.572 13.256L30.96 34.8a.834.834 0 00-1.274-.65c-2.865 1.8-6.06 3.38-9.495 4.69a.832.832 0 00-.52.942l.489 2.443-3.146 4.194a.834.834 0 00.97 1.278L30.9 42.643a.833.833 0 00.528-.831zm-11.323 3.263l1.611-2.149a.834.834 0 00.15-.663l-.424-2.12a56.23 56.23 0 007.946-3.862l.336 5.03-9.62 3.764zM24.165 25h-5.614a.835.835 0 00-.729.428l-7.047 12.663a.834.834 0 001.16 1.117l12.662-7.662a.833.833 0 00.401-.713v-5a.833.833 0 00-.833-.833zm-.833 5.364l-9.574 5.794 5.282-9.49v-.002h4.292v3.698z" fill="#24BCED"/><path d="M49.959.803a.834.834 0 00-.762-.762C48.92.02 21.479-1.896 9.602 29.214a.833.833 0 00.19.886l3.961 3.962a.837.837 0 00.707.236.836.836 0 00.612-.423l3.97-7.208h4.29v3.707l-7.251 4.578a.836.836 0 00-.144 1.295l3.962 3.962a.832.832 0 00.886.189C51.897 28.519 49.982 1.078 49.96.803zm-4.372 14.784c-2.924 7.235-9.615 17.07-24.893 23.06l-2.842-2.841 6.758-4.267a.835.835 0 00.388-.705v-5a.834.834 0 00-.833-.833h-5.616a.834.834 0 00-.73.432l-3.673 6.668-2.794-2.795C21.78 2.706 44.005 1.618 48.325 1.679c.031 1.943-.147 7.498-2.738 13.908zM14.274 36.804a.831.831 0 00-.752-.327.834.834 0 00-.326-.752c-1.257-.95-2.878-1.265-4.45-.867A5.605 5.605 0 005 37.983L.075 48.82a.832.832 0 001.103 1.103l10.839-4.927a5.602 5.602 0 003.124-3.743c.399-1.57.083-3.193-.867-4.45zm-.748 4.04a3.947 3.947 0 01-2.198 2.637l-8.816 4.007 4.007-8.817a3.945 3.945 0 013.563-2.315c.519 0 1.026.111 1.489.327l-.793 1.404a.833.833 0 001.135 1.136l1.405-.794c.341.734.419 1.584.208 2.415z" fill="#24BCED"/><path d="M49.959.803a.834.834 0 00-.762-.761c-.325-.026-8.05-.611-17.134 3.574a.832.832 0 00-.24 1.345l13.215 13.216a.833.833 0 001.347-.24c4.185-9.084 3.6-16.81 3.574-17.134zm-4.602 15.335L33.861 4.642c6.65-2.807 12.474-3 14.465-2.967.033 1.992-.154 7.798-2.969 14.463zm-8.557-2.94a7.194 7.194 0 00-10.163 0 7.195 7.195 0 000 10.164 7.162 7.162 0 005.082 2.102c1.84 0 3.68-.701 5.082-2.102a7.194 7.194 0 000-10.164zm-1.177 8.986a5.527 5.527 0 01-7.807 0 5.527 5.527 0 010-7.807 5.504 5.504 0 013.903-1.614c1.413 0 2.827.538 3.904 1.614a5.527 5.527 0 010 7.807z" fill="#24BCED"/><path d="M33.376 19.937c-.914.915-2.4.914-3.314 0a2.347 2.347 0 010-3.314 2.346 2.346 0 013.314 0 .832.832 0 101.178-1.178 4.014 4.014 0 00-5.67 0 4.014 4.014 0 000 5.67 3.999 3.999 0 002.835 1.173 3.994 3.994 0 002.835-1.173.832.832 0 10-1.178-1.178z" fill="#24BCED"/></svg>