<svg width="60" height="60" fill="none" xmlns="http://www.w3.org/2000/svg"><path d="M37.39 12.993V.605A.605.605 0 0036.787 0h-13.57a.605.605 0 00-.606.605v12.388L30 14.048l7.39-1.055z" fill="#ECEAEC"/><path d="M22.61 15.17L30 16.224l7.39-1.054v-2.178H22.61v2.178z" fill="#DAD8DB"/><path d="M40.619 19.154L30 20.21l-10.619-1.055v-3.378c0-.334.271-.605.605-.605h20.027c.334 0 .605.27.605.605v3.378z" fill="#DF667C"/><path d="M19.382 21.332l10.619 1.054 10.618-1.054v-2.178H19.382v2.178z" fill="#DC4857"/><path d="M23.011 58.878H36.99c2.926 0 3.629-2.68 3.629-4.684V21.332H19.382v32.862c0 2.005.648 4.684 3.63 4.684zm3.55-5.862c0-.334.27-1.66.605-1.66h5.67c.333 0 .604 1.326.604 1.66v2.04c0 .335-.27.605-.605.605h-5.67a.605.605 0 01-.604-.605v-2.04z" fill="#434D59"/><path d="M36.99 57.822H23.01a3.63 3.63 0 01-3.629-3.629v2.178A3.63 3.63 0 0023.012 60H36.99a3.63 3.63 0 003.629-3.63v-2.177a3.629 3.629 0 01-3.63 3.63zm-4.156-7.589h-5.669a.605.605 0 00-.604.605v2.178c0-.334.27-.605.604-.605h5.67c.334 0 .604.27.604.605v-2.178a.605.605 0 00-.605-.605z" fill="#3B434D"/><path d="M27.819 8.316V5.592a.909.909 0 00-1.819 0v2.724a.909.909 0 001.819 0zm6.182 0V5.592a.909.909 0 10-1.818 0v2.724a.909.909 0 001.818 0z" fill="#454D58"/></svg>