<svg width="50" height="54" fill="none" xmlns="http://www.w3.org/2000/svg"><path d="M39.198 38.355l-5.013-1.67-1.8-3.6c1.622-1.65 2.748-3.834 3.127-6.11l.225-1.346h1.92a3.168 3.168 0 003.163-3.164V15.82C40.82 7.097 33.723 0 25 0 16.254 0 9.18 7.077 9.18 15.82v6.645a3.17 3.17 0 002.11 2.983v1.236a3.168 3.168 0 003.163 3.164h.926a11.439 11.439 0 002.234 3.24l-1.798 3.596-5.013 1.671C4.972 40.3.742 46.435.742 52.945c0 .583.472 1.055 1.055 1.055h46.406c.582 0 1.055-.472 1.055-1.055 0-6.51-4.23-12.646-10.06-14.59zm-.487-15.89c0 .581-.473 1.055-1.055 1.055h-1.61c.269-2.077.447-4.287.52-6.464l.005-.181h2.14v5.59zM12.344 23.52a1.056 1.056 0 01-1.055-1.055v-5.59h2.14l.012.332v.012c.074 2.117.25 4.27.513 6.3h-1.61zm2.11 4.218a1.056 1.056 0 01-1.056-1.054v-1.055h.865l.225 1.346c.042.255.095.51.156.763h-.19zM13.4 14.766h-2.07C11.862 7.697 17.761 2.109 25 2.109c7.205 0 13.13 5.587 13.67 12.657H36.6C36.524 8.94 31.78 4.219 25.944 4.219h-1.888c-5.836 0-10.58 4.722-10.656 10.547zm10.656-8.438h1.888c4.726 0 8.55 3.866 8.548 8.586 0 .332-.002.621-.008.884v.01l-1.32-.188a16.947 16.947 0 01-9.528-4.764 1.055 1.055 0 00-.745-.31 9.542 9.542 0 00-7.337 3.472c.442-4.295 4.073-7.69 8.502-7.69zm-7.226 21.41c-.528-1.756-1.132-6.924-1.265-10.236l1.42-1.892a7.424 7.424 0 015.489-2.942 19.076 19.076 0 0010.392 5.04l1.553.222a64.936 64.936 0 01-.62 6.448c-.097.654-.173 1.074-.367 2.25-.559 3.35-3.059 6.379-6.359 7.204a8.58 8.58 0 01-4.146 0c-2.06-.515-3.95-1.94-5.17-3.984h2.151a3.169 3.169 0 002.983 2.109H25a3.163 3.163 0 100-6.328h-2.11c-1.405 0-2.56.908-2.984 2.11H16.83zm5.972 8.229a10.648 10.648 0 003.923.088l-1.864 1.97-2.06-2.058zm.61 3.592l-3.346 3.538a40.184 40.184 0 01-2.361-5.476l1.256-2.512 4.45 4.45zm7.448-4.808l1.435 2.87a40.171 40.171 0 01-2.361 5.477l-3.58-3.58 4.506-4.767zm-9.024-5.958c0-.582.472-1.055 1.055-1.055H25a1.056 1.056 0 010 2.11h-2.11a1.056 1.056 0 01-1.054-1.055zM2.894 51.891c.418-5.225 3.895-9.974 8.575-11.535l4.44-1.48a42.274 42.274 0 003.001 6.512l.006.011a42.38 42.38 0 002.887 4.409L23.1 51.89H2.895zM25 50.95l-1.43-2.297a1.09 1.09 0 00-.052-.075 40.2 40.2 0 01-2.376-3.55l3.761-3.978 3.964 3.963a40.159 40.159 0 01-2.385 3.565c-.052.069.021-.04-1.482 2.371zm1.9.94l1.297-2.083a42.285 42.285 0 002.907-4.444l.015-.028.002-.003a42.235 42.235 0 002.97-6.456l4.44 1.48c4.68 1.56 8.157 6.309 8.575 11.534H26.9z" fill="#24BCED"/></svg>